<svg xmlns="http://www.w3.org/2000/svg" width="69.56" height="60" viewBox="0 0 80 69" fill="none">
  <mask id="path-1-outside-1_13095_730" maskUnits="userSpaceOnUse" x="0" y="0" width="80" height="69" fill="black">
    <rect fill="white" width="80" height="69"/>
    <path fill-rule="evenodd" clip-rule="evenodd" d="M39.5468 8.1264C42.382 5.2912 46.9788 5.2912 49.814 8.1264L70.394 28.7064C70.5288 28.8412 70.6572 28.98 70.7792 29.1223C72.3344 30.4539 73.32 32.4316 73.32 34.6395C73.32 35.8145 73.0409 36.9244 72.5453 37.9063C72.1923 38.7173 71.6842 39.477 71.0209 40.1403L50.441 60.7203C47.6058 63.5555 43.009 63.5555 40.1738 60.7203C37.3386 57.8851 37.3386 53.2883 40.1738 50.4531L48.7274 41.8995H13.26C9.25041 41.8995 6 38.6491 6 34.6395C6 30.6299 9.25041 27.3795 13.26 27.3795H48.5328L39.5468 18.3936C36.7116 15.5584 36.7116 10.9616 39.5468 8.1264Z"/>
  </mask>
  <path fill-rule="evenodd" clip-rule="evenodd" d="M39.5468 8.1264C42.382 5.2912 46.9788 5.2912 49.814 8.1264L70.394 28.7064C70.5288 28.8412 70.6572 28.98 70.7792 29.1223C72.3344 30.4539 73.32 32.4316 73.32 34.6395C73.32 35.8145 73.0409 36.9244 72.5453 37.9063C72.1923 38.7173 71.6842 39.477 71.0209 40.1403L50.441 60.7203C47.6058 63.5555 43.009 63.5555 40.1738 60.7203C37.3386 57.8851 37.3386 53.2883 40.1738 50.4531L48.7274 41.8995H13.26C9.25041 41.8995 6 38.6491 6 34.6395C6 30.6299 9.25041 27.3795 13.26 27.3795H48.5328L39.5468 18.3936C36.7116 15.5584 36.7116 10.9616 39.5468 8.1264Z" fill="white"/>
  <path d="M49.814 8.1264L54.0567 3.88376L54.0567 3.88376L49.814 8.1264ZM39.5468 8.1264L43.7895 12.369L43.7895 12.369L39.5468 8.1264ZM70.394 28.7064L66.1513 32.949L66.1514 32.949L70.394 28.7064ZM70.7792 29.1223L66.2227 33.026L66.5245 33.3783L66.877 33.6801L70.7792 29.1223ZM72.5453 37.9063L67.1889 35.2028L67.1119 35.3554L67.0437 35.5121L72.5453 37.9063ZM71.0209 40.1403L66.7783 35.8977L66.7783 35.8977L71.0209 40.1403ZM50.441 60.7203L54.6836 64.9629L54.6836 64.9629L50.441 60.7203ZM48.7274 41.8995L52.97 46.1422L63.2126 35.8995H48.7274V41.8995ZM48.5328 27.3795V33.3795H63.018L52.7754 23.1369L48.5328 27.3795ZM39.5468 18.3936L43.7895 14.1509L43.7895 14.1509L39.5468 18.3936ZM54.0567 3.88376C48.8783 -1.29459 40.4825 -1.29459 35.3042 3.88376L43.7895 12.369C44.2815 11.877 45.0793 11.877 45.5714 12.369L54.0567 3.88376ZM74.6366 24.4637L54.0567 3.88376L45.5714 12.369L66.1513 32.949L74.6366 24.4637ZM75.3356 25.2187C75.1136 24.9595 74.8805 24.7076 74.6366 24.4637L66.1514 32.949C66.1771 32.9747 66.2008 33.0004 66.2227 33.026L75.3356 25.2187ZM79.32 34.6395C79.32 30.6054 77.5112 26.9874 74.6813 24.5646L66.877 33.6801C67.1576 33.9204 67.32 34.2578 67.32 34.6395H79.32ZM77.9017 40.6097C78.8108 38.8086 79.32 36.7749 79.32 34.6395H67.32C67.32 34.8542 67.271 35.0401 67.1889 35.2028L77.9017 40.6097ZM75.2636 44.383C76.4673 43.1793 77.3988 41.7899 78.0469 40.3005L67.0437 35.5121C66.9859 35.6448 66.9012 35.7748 66.7783 35.8977L75.2636 44.383ZM54.6836 64.9629L75.2636 44.383L66.7783 35.8977L46.1983 56.4777L54.6836 64.9629ZM35.9311 64.9629C41.1095 70.1413 49.5053 70.1413 54.6836 64.9629L46.1983 56.4777C45.7063 56.9697 44.9085 56.9697 44.4164 56.4777L35.9311 64.9629ZM35.9311 46.2105C30.7528 51.3888 30.7528 59.7846 35.9311 64.9629L44.4164 56.4777C43.9244 55.9856 43.9244 55.1878 44.4164 54.6958L35.9311 46.2105ZM44.4847 37.6569L35.9311 46.2105L44.4164 54.6958L52.97 46.1422L44.4847 37.6569ZM13.26 47.8995H48.7274V35.8995H13.26V47.8995ZM0 34.6395C0 41.9628 5.9367 47.8995 13.26 47.8995V35.8995C12.5641 35.8995 12 35.3354 12 34.6395H0ZM13.26 21.3795C5.9367 21.3795 0 27.3162 0 34.6395H12C12 33.9436 12.5641 33.3795 13.26 33.3795V21.3795ZM48.5328 21.3795H13.26V33.3795H48.5328V21.3795ZM35.3042 22.6362L44.2901 31.6222L52.7754 23.1369L43.7895 14.1509L35.3042 22.6362ZM35.3042 3.88376C30.1258 9.06211 30.1258 17.4579 35.3042 22.6362L43.7895 14.1509C43.2974 13.6589 43.2974 12.8611 43.7895 12.369L35.3042 3.88376Z" fill="#353535" mask="url(#path-1-outside-1_13095_730)"/>
</svg>